<mxfile host="app.diagrams.net" modified="2020-12-28T09:20:22.554Z" agent="5.0 (Macintosh; Intel Mac OS X 10_15_7) AppleWebKit/537.36 (KHTML, like Gecko) Chrome/87.0.4280.88 Safari/537.36" etag="xmphDg-g5OsjIVFyLFER" version="14.1.2" type="github">
  <diagram id="fKl9AvlSu3H5pvbopE0L" name="Page-1">
    <mxGraphModel dx="1022" dy="631" grid="1" gridSize="10" guides="1" tooltips="1" connect="1" arrows="1" fold="1" page="1" pageScale="1" pageWidth="827" pageHeight="1169" math="0" shadow="0">
      <root>
        <mxCell id="0" />
        <mxCell id="1" parent="0" />
        <mxCell id="JMi9gb69IU8YjRRGoeDc-2" value="" style="html=1;fillColor=#d5e8d4;strokeColor=#82b366;" vertex="1" parent="1">
          <mxGeometry x="230" y="150" width="530" height="450" as="geometry" />
        </mxCell>
        <mxCell id="JMi9gb69IU8YjRRGoeDc-7" value="" style="rounded=0;whiteSpace=wrap;html=1;fillColor=#ffe6cc;strokeColor=#d79b00;" vertex="1" parent="1">
          <mxGeometry x="250" y="290" width="490" height="180" as="geometry" />
        </mxCell>
        <mxCell id="JMi9gb69IU8YjRRGoeDc-13" value="" style="rounded=0;whiteSpace=wrap;html=1;fillColor=#f8cecc;strokeColor=#b85450;" vertex="1" parent="1">
          <mxGeometry x="310" y="305" width="260" height="155" as="geometry" />
        </mxCell>
        <mxCell id="JMi9gb69IU8YjRRGoeDc-4" value="" style="rounded=0;whiteSpace=wrap;html=1;fillColor=#ffe6cc;strokeColor=#d79b00;" vertex="1" parent="1">
          <mxGeometry x="250" y="190" width="250" height="80" as="geometry" />
        </mxCell>
        <mxCell id="JMi9gb69IU8YjRRGoeDc-1" value="活动标题" style="shape=module;align=left;spacingLeft=20;align=center;verticalAlign=top;fillColor=#e1d5e7;strokeColor=#9673a6;" vertex="1" parent="1">
          <mxGeometry x="314" y="200" width="100" height="50" as="geometry" />
        </mxCell>
        <mxCell id="JMi9gb69IU8YjRRGoeDc-3" value="&lt;font style=&quot;font-size: 16px&quot;&gt;Container&lt;/font&gt;" style="text;html=1;strokeColor=none;fillColor=none;align=center;verticalAlign=middle;whiteSpace=wrap;rounded=0;" vertex="1" parent="1">
          <mxGeometry x="350" y="160" width="40" height="20" as="geometry" />
        </mxCell>
        <mxCell id="JMi9gb69IU8YjRRGoeDc-5" value="&lt;font style=&quot;font-size: 14px&quot;&gt;Header&lt;/font&gt;" style="text;html=1;strokeColor=none;fillColor=none;align=center;verticalAlign=middle;whiteSpace=wrap;rounded=0;" vertex="1" parent="1">
          <mxGeometry x="260" y="200" width="40" height="20" as="geometry" />
        </mxCell>
        <mxCell id="JMi9gb69IU8YjRRGoeDc-8" value="播放器标题" style="shape=module;align=left;spacingLeft=20;align=center;verticalAlign=top;fillColor=#d5e8d4;strokeColor=#82b366;" vertex="1" parent="1">
          <mxGeometry x="340" y="340" width="100" height="50" as="geometry" />
        </mxCell>
        <mxCell id="JMi9gb69IU8YjRRGoeDc-10" value="&lt;font style=&quot;font-size: 14px&quot;&gt;Main&lt;/font&gt;" style="text;html=1;strokeColor=none;fillColor=none;align=center;verticalAlign=middle;whiteSpace=wrap;rounded=0;" vertex="1" parent="1">
          <mxGeometry x="260" y="300" width="40" height="20" as="geometry" />
        </mxCell>
        <mxCell id="JMi9gb69IU8YjRRGoeDc-11" value="播放器" style="shape=module;align=left;spacingLeft=20;align=center;verticalAlign=top;fillColor=#d5e8d4;strokeColor=#82b366;" vertex="1" parent="1">
          <mxGeometry x="340" y="400" width="100" height="50" as="geometry" />
        </mxCell>
        <mxCell id="JMi9gb69IU8YjRRGoeDc-12" value="节目单" style="shape=module;align=left;spacingLeft=20;align=center;verticalAlign=top;fillColor=#d5e8d4;strokeColor=#82b366;" vertex="1" parent="1">
          <mxGeometry x="456" y="340" width="100" height="50" as="geometry" />
        </mxCell>
        <mxCell id="JMi9gb69IU8YjRRGoeDc-15" value="播放器加载&#xa;Loading" style="shape=module;align=left;spacingLeft=20;align=center;verticalAlign=top;fillColor=#d5e8d4;strokeColor=#82b366;" vertex="1" parent="1">
          <mxGeometry x="456" y="400" width="100" height="50" as="geometry" />
        </mxCell>
        <mxCell id="JMi9gb69IU8YjRRGoeDc-16" value="&lt;span style=&quot;font-size: 14px&quot;&gt;直播页&lt;/span&gt;" style="text;html=1;strokeColor=none;fillColor=none;align=center;verticalAlign=middle;whiteSpace=wrap;rounded=0;" vertex="1" parent="1">
          <mxGeometry x="320" y="310" width="50" height="20" as="geometry" />
        </mxCell>
        <mxCell id="JMi9gb69IU8YjRRGoeDc-17" value="" style="rounded=0;whiteSpace=wrap;html=1;fillColor=#f8cecc;strokeColor=#b85450;" vertex="1" parent="1">
          <mxGeometry x="580" y="305" width="140" height="155" as="geometry" />
        </mxCell>
        <mxCell id="JMi9gb69IU8YjRRGoeDc-18" value="&lt;span style=&quot;font-size: 14px&quot;&gt;预约页&lt;/span&gt;" style="text;html=1;strokeColor=none;fillColor=none;align=center;verticalAlign=middle;whiteSpace=wrap;rounded=0;" vertex="1" parent="1">
          <mxGeometry x="590" y="310" width="50" height="20" as="geometry" />
        </mxCell>
        <mxCell id="JMi9gb69IU8YjRRGoeDc-19" value="大赛简介" style="shape=module;align=left;spacingLeft=20;align=center;verticalAlign=top;fillColor=#d5e8d4;strokeColor=#82b366;" vertex="1" parent="1">
          <mxGeometry x="600" y="340" width="100" height="50" as="geometry" />
        </mxCell>
        <mxCell id="JMi9gb69IU8YjRRGoeDc-22" value="" style="rounded=0;whiteSpace=wrap;html=1;fillColor=#ffe6cc;strokeColor=#d79b00;" vertex="1" parent="1">
          <mxGeometry x="250" y="490" width="250" height="80" as="geometry" />
        </mxCell>
        <mxCell id="JMi9gb69IU8YjRRGoeDc-23" value="二维码" style="shape=module;align=left;spacingLeft=20;align=center;verticalAlign=top;fillColor=#d5e8d4;strokeColor=#82b366;" vertex="1" parent="1">
          <mxGeometry x="314" y="500" width="100" height="50" as="geometry" />
        </mxCell>
        <mxCell id="JMi9gb69IU8YjRRGoeDc-24" value="&lt;span style=&quot;font-size: 14px&quot;&gt;Footer&lt;/span&gt;" style="text;html=1;strokeColor=none;fillColor=none;align=center;verticalAlign=middle;whiteSpace=wrap;rounded=0;" vertex="1" parent="1">
          <mxGeometry x="260" y="500" width="40" height="20" as="geometry" />
        </mxCell>
      </root>
    </mxGraphModel>
  </diagram>
</mxfile>
